<svg xmlns="http://www.w3.org/2000/svg" xmlns:xlink="http://www.w3.org/1999/xlink" width="200" height="200" viewBox="0 0 200 200">
  <defs>
    <clipPath id="clip-path">
      <rect id="Rectangle_1" data-name="Rectangle 1" width="200" height="200" transform="translate(173 121)" fill="#fff" stroke="#707070" stroke-width="1"/>
    </clipPath>
  </defs>
  <g id="Mask_Group_1" data-name="Mask Group 1" transform="translate(-173 -121)" clip-path="url(#clip-path)">
    <g id="undraw_business_shop_qw5t" transform="translate(173 140.433)">
      <ellipse id="Ellipse_1" data-name="Ellipse 1" cx="98.812" cy="7.72" rx="98.812" ry="7.72" transform="translate(2.375 145.695)" fill="#3f3d56"/>
      <path id="Path_1" data-name="Path 1" d="M185.123,139.074l.926,6.792-6.483.617.926-8.335Z" fill="#a0616a"/>
      <path id="Path_2" data-name="Path 2" d="M197.079,72.164s.617,8.335.617,8.644-4.322,21.61-4.322,21.61-6.174,11.731,0,11.422,4.322-11.114,4.322-11.114l6.483-17.905L201.4,72.165Z" transform="translate(-42.518 -26.321)" fill="#a0616a"/>
      <path id="Path_3" data-name="Path 3" d="M164.748,139.074l-.926,6.792,6.483.617-.926-8.335Z" fill="#a0616a"/>
      <path id="Path_4" data-name="Path 4" d="M200.166,101.8l-1.544,2.161s-.926,9.261,0,12.348S201.4,133.6,201.4,134.524s.309,1.544,0,1.852-1.235.309-.617.926.617,2.47.617,2.47v1.543l4.013,22.845s-2.47,2.778-.617,2.778,8.644,0,8.335-3.087l-.617-.309s-.926-20.375-.617-21.3a7.88,7.88,0,0,0,0-2.778s-.617-.926,0-1.235.617-2.778.617-2.778l2.778-18.831s2.47,12.657,4.013,13.892,1.235,4.322,1.235,4.322L221.775,162s-1.235,3.087,0,3.7,6.483,2.778,6.792-.309,1.852-29.945,1.852-31.18-.309-1.852,0-2.778-.309-.926,0-.926-.617-.926-.617-1.544V113.84a22.8,22.8,0,0,1,.617-3.7c.309-.617-.309-1.235,0-2.161s-.617-4.013-.617-4.013l-13.892-3.7Z" transform="translate(-42.518 -26.321)" fill="#2f2e41"/>
      <path id="Path_5" data-name="Path 5" d="M210.971,170.952s1.544-1.544-.617-1.544a10.048,10.048,0,0,0-4.013.926l-1.544,5.557s-6.329,5.094.772,4.476,6.02-.154,6.02-.154,2.161-.617,2.47-1.235-.617-9.57-.617-9.57S212.514,171.878,210.971,170.952Z" transform="translate(-42.518 -26.321)" fill="#2f2e41"/>
      <path id="Path_6" data-name="Path 6" d="M224.245,170.952s-1.544-1.544.617-1.544a10.048,10.048,0,0,1,4.013.926l1.544,5.557s6.329,5.094-.772,4.476-6.946-.154-6.946-.154-2.161-.617-2.47-1.235,1.544-9.57,1.544-9.57S222.7,171.878,224.245,170.952Z" transform="translate(-42.518 -26.321)" fill="#2f2e41"/>
      <circle id="Ellipse_2" data-name="Ellipse 2" cx="8.026" cy="8.026" r="8.026" transform="translate(153.635 5.402)" fill="#a0616a"/>
      <path id="Path_7" data-name="Path 7" d="M201.4,45.615s1.235,6.174,1.235,7.1,5.248,3.7,5.248,3.7l5.865-7.409s-3.7-5.248-3.7-6.483Z" transform="translate(-42.518 -26.321)" fill="#a0616a"/>
      <path id="Path_8" data-name="Path 8" d="M206.031,53.642s-2.691-.716-3.506-1.9c0,0-8.533,8.385-8.533,9.928l6.792,12.04s0,4.322.617,4.631,0,0,0,1.235-1.852,9.261-1.235,10.5,1.235.309.617,2.161-2.161,11.731-2.161,11.731,5.557-1.852,13.583,1.235,17.6-1.235,17.6-1.235-2.47-5.557-1.852-7.409-1.544-5.248-1.544-5.248l-1.544-28.4s2.161-12.657.617-13.275l-3.087-1.235-9.886-1.215S210.045,53.333,206.031,53.642Z" transform="translate(-42.518 -26.321)" fill="#d0cde1"/>
      <path id="Path_9" data-name="Path 9" d="M197.079,59.507l-3.087,2.161s-1.544,4.631,0,6.792a15.831,15.831,0,0,1,2.161,5.248l6.174-.617Z" transform="translate(-42.518 -26.321)" fill="#d0cde1"/>
      <path id="Path_10" data-name="Path 10" d="M198.051,31.267l-1.392-.557s2.911-3.2,6.961-2.926l-1.139-1.254s2.785-1.115,5.316,1.812a24.708,24.708,0,0,1,3.83,5.383h1.491l-.622,1.37,2.178,1.37-2.236-.246a7.582,7.582,0,0,1-.211,3.549l.06,1.083s-2.591-4.009-2.591-4.567v1.393s-1.392-1.254-1.392-2.09l-.759.975-.38-1.533-4.683,1.533.759-1.254-2.911.418,1.139-1.533s-3.291,1.812-3.417,3.344a8.221,8.221,0,0,1-1.772,3.484l-.759-1.393S194.38,33.357,198.051,31.267Z" transform="translate(-42.518 -26.321)" fill="#2f2e41"/>
      <rect id="Rectangle_2" data-name="Rectangle 2" width="122.675" height="86.175" transform="translate(34.719 67.181)" fill="#f2f2f2"/>
      <rect id="Rectangle_3" data-name="Rectangle 3" width="30.802" height="53.771" transform="translate(45.046 100.061)" fill="#3f3d56"/>
      <rect id="Rectangle_4" data-name="Rectangle 4" width="8.297" height="7.735" transform="translate(50.744 103.287)" fill="#f2f2f2"/>
      <rect id="Rectangle_5" data-name="Rectangle 5" width="8.297" height="7.735" transform="translate(61.854 103.287)" fill="#f2f2f2"/>
      <rect id="Rectangle_6" data-name="Rectangle 6" width="8.297" height="8.016" transform="translate(50.744 113.834)" fill="#f2f2f2"/>
      <rect id="Rectangle_7" data-name="Rectangle 7" width="8.297" height="8.016" transform="translate(61.854 113.834)" fill="#f2f2f2"/>
      <circle id="Ellipse_3" data-name="Ellipse 3" cx="1.959" cy="1.959" r="1.959" transform="translate(69.973 128.608)" fill="#42145f"/>
      <rect id="Rectangle_8" data-name="Rectangle 8" width="60.892" height="51.1" transform="translate(86.176 94.957)" fill="#3f3d56"/>
      <path id="Path_11" data-name="Path 11" d="M170.214,83.4H21.9L31.789,62.73,34,58.1l2.9-6.054,2.213-4.629,2.566-5.363H158.529l1.515,5.363,1.309,4.629,1.711,6.054,1.309,4.629Z" fill="#3f3d56"/>
      <rect id="Rectangle_9" data-name="Rectangle 9" width="2.137" height="13.176" transform="translate(88.312 116.144)" fill="#42145f"/>
      <rect id="Rectangle_10" data-name="Rectangle 10" width="2.137" height="1.602" transform="translate(88.312 118.103)" fill="#f2f2f2"/>
      <rect id="Rectangle_11" data-name="Rectangle 11" width="2.137" height="1.602" transform="translate(88.312 125.759)" fill="#f2f2f2"/>
      <rect id="Rectangle_12" data-name="Rectangle 12" width="5.163" height="13.176" transform="translate(91.517 116.144)" fill="#42145f"/>
      <rect id="Rectangle_13" data-name="Rectangle 13" width="5.163" height="1.602" transform="translate(91.517 118.103)" fill="#f2f2f2"/>
      <rect id="Rectangle_14" data-name="Rectangle 14" width="5.163" height="1.602" transform="translate(91.517 125.759)" fill="#f2f2f2"/>
      <rect id="Rectangle_15" data-name="Rectangle 15" width="2.137" height="13.176" transform="translate(97.927 116.144)" fill="#42145f"/>
      <rect id="Rectangle_16" data-name="Rectangle 16" width="2.137" height="1.602" transform="translate(97.927 118.103)" fill="#f2f2f2"/>
      <rect id="Rectangle_17" data-name="Rectangle 17" width="2.137" height="1.602" transform="translate(97.927 125.759)" fill="#f2f2f2"/>
      <rect id="Rectangle_18" data-name="Rectangle 18" width="2.137" height="13.176" transform="translate(101.132 116.144)" fill="#42145f"/>
      <rect id="Rectangle_19" data-name="Rectangle 19" width="2.137" height="1.602" transform="translate(101.132 118.103)" fill="#f2f2f2"/>
      <rect id="Rectangle_20" data-name="Rectangle 20" width="2.137" height="1.602" transform="translate(101.132 125.759)" fill="#f2f2f2"/>
      <rect id="Rectangle_21" data-name="Rectangle 21" width="2.137" height="13.176" transform="translate(103.329 116.944) rotate(-20.654)" fill="#42145f"/>
      <rect id="Rectangle_22" data-name="Rectangle 22" width="2.137" height="1.602" transform="translate(104.02 118.777) rotate(-20.654)" fill="#f2f2f2"/>
      <rect id="Rectangle_23" data-name="Rectangle 23" width="2.137" height="1.602" transform="translate(106.72 125.941) rotate(-20.654)" fill="#f2f2f2"/>
      <rect id="Rectangle_24" data-name="Rectangle 24" width="5.163" height="13.176" transform="translate(139.946 116.144)" fill="#42145f"/>
      <rect id="Rectangle_25" data-name="Rectangle 25" width="5.163" height="1.602" transform="translate(139.946 118.103)" fill="#f2f2f2"/>
      <rect id="Rectangle_26" data-name="Rectangle 26" width="5.163" height="1.602" transform="translate(139.946 125.759)" fill="#f2f2f2"/>
      <rect id="Rectangle_27" data-name="Rectangle 27" width="2.137" height="13.176" transform="translate(136.563 116.144)" fill="#42145f"/>
      <rect id="Rectangle_28" data-name="Rectangle 28" width="2.137" height="1.602" transform="translate(136.563 118.103)" fill="#f2f2f2"/>
      <rect id="Rectangle_29" data-name="Rectangle 29" width="2.137" height="1.602" transform="translate(136.563 125.759)" fill="#f2f2f2"/>
      <rect id="Rectangle_30" data-name="Rectangle 30" width="2.137" height="13.176" transform="translate(133.358 116.144)" fill="#42145f"/>
      <rect id="Rectangle_31" data-name="Rectangle 31" width="2.137" height="1.602" transform="translate(133.358 118.103)" fill="#f2f2f2"/>
      <rect id="Rectangle_32" data-name="Rectangle 32" width="2.137" height="1.602" transform="translate(133.358 125.759)" fill="#f2f2f2"/>
      <rect id="Rectangle_33" data-name="Rectangle 33" width="13.176" height="2.137" transform="translate(126.653 128.52) rotate(-69.346)" fill="#42145f"/>
      <rect id="Rectangle_34" data-name="Rectangle 34" width="1.602" height="2.137" transform="translate(130.045 119.523) rotate(-69.346)" fill="#f2f2f2"/>
      <rect id="Rectangle_35" data-name="Rectangle 35" width="1.602" height="2.137" transform="translate(127.344 126.687) rotate(-69.346)" fill="#f2f2f2"/>
      <rect id="Rectangle_36" data-name="Rectangle 36" width="60.892" height="1.246" transform="translate(86.176 129.32)" fill="#f2f2f2"/>
      <rect id="Rectangle_37" data-name="Rectangle 37" width="11.217" height="13.176" transform="translate(112.705 116.144)" fill="#42145f"/>
      <rect id="Rectangle_38" data-name="Rectangle 38" width="5.698" height="2.493" transform="translate(115.464 118.993)" fill="#f2f2f2"/>
      <rect id="Rectangle_39" data-name="Rectangle 39" width="1.068" height="11.395" transform="translate(116.088 94.957)" fill="#f2f2f2"/>
      <circle id="Ellipse_4" data-name="Ellipse 4" cx="1.78" cy="1.78" r="1.78" transform="translate(114.841 104.571)" fill="#f2f2f2"/>
      <path id="Path_12" data-name="Path 12" d="M161.353,52.047H36.9l2.213-4.629H160.044Z" fill="#42145f"/>
      <path id="Path_13" data-name="Path 13" d="M164.372,62.73H31.789L34,58.1H163.064Z" fill="#42145f"/>
      <path id="Path_14" data-name="Path 14" d="M219.923,62.286a23.612,23.612,0,0,0-1.414,9.145,4.82,4.82,0,0,0,.8,2.277h0l-21.9,10.4s-9.9,1.025-7.426,5.347S201.4,87.291,201.4,87.291s23.462-3.4,25.314-6.792S229.8,62.9,229.8,62.9Z" transform="translate(-42.518 -26.321)" fill="#a0616a"/>
      <path id="Path_15" data-name="Path 15" d="M220.849,49.629h4.631s3.4.617,4.322,6.792,1.852,7.718.926,7.718-12.04-.309-12.04-.617S220.849,49.629,220.849,49.629Z" transform="translate(-42.518 -26.321)" fill="#d0cde1"/>
      <circle id="Ellipse_5" data-name="Ellipse 5" cx="23.753" cy="23.753" r="23.753" transform="translate(0 68.023)" fill="#42145f"/>
      <circle id="Ellipse_6" data-name="Ellipse 6" cx="20.428" cy="20.428" r="20.428" transform="translate(3.325 71.348)" opacity="0.1"/>
      <path id="Path_16" data-name="Path 16" d="M65.292,130.151v-2.973a6.9,6.9,0,0,1-3.965-1.3l.622-1.972a6.338,6.338,0,0,0,3.731,1.266,2.858,2.858,0,0,0,3.084-2.885c0-1.619-1.011-2.62-2.928-3.5-2.643-1.177-4.276-2.532-4.276-5.093a4.628,4.628,0,0,1,3.913-4.739v-2.973H67.08v2.855a6.3,6.3,0,0,1,3.369,1.03l-.648,1.943a5.726,5.726,0,0,0-3.265-1,2.488,2.488,0,0,0-2.747,2.532c0,1.531.959,2.3,3.213,3.356,2.669,1.236,4.017,2.767,4.017,5.387a4.926,4.926,0,0,1-4.094,5v3.062Z" transform="translate(-42.518 -26.321)" fill="#f2f2f2"/>
    </g>
  </g>
</svg>
